<?xml version="1.0" encoding="UTF-8" standalone="no"?>
<!DOCTYPE svg PUBLIC "-//W3C//DTD SVG 1.1//EN" "http://www.w3.org/Graphics/SVG/1.1/DTD/svg11.dtd">
<svg width="100%" height="100%" viewBox="0 0 1000 1000" version="1.1" xmlns="http://www.w3.org/2000/svg" xmlns:xlink="http://www.w3.org/1999/xlink" xml:space="preserve" xmlns:serif="http://www.serif.com/" style="fill-rule:evenodd;clip-rule:evenodd;stroke-linejoin:round;stroke-miterlimit:2;">
    <g transform="matrix(0.93666,0,0,0.93666,-20.783109,-27.416507)">
        <ellipse cx="556" cy="563" rx="521" ry="504" style="fill:rgb(255,176,176);"/>
    </g>
    <g id="icon__1_-removebg-preview__1_-removebg-preview.png" transform="matrix(2.171152,0,0,2.171152,44.044556,27.114035)">
        <path d="M208.534,119.181C209.507,119.173 210.48,119.165 211.454,119.157C238.556,110.942 269.487,113.097 292.595,124.302C385.056,169.139 374.267,300.692 280.373,332.117C245.274,343.865 215.827,333.715 212.431,332.817C209.495,332.321 209.518,332.109 206.572,332.817C163.949,346.934 111.876,330.852 83.902,291.211C45.304,236.514 65.624,169.827 102.888,139.967C151.61,100.925 200.319,116.949 208.534,119.181Z" style="fill:rgb(127,139,180);"/>
        <path d="M169.437,149.388C171.579,148.353 180.54,143.263 190.584,140.87C258.63,124.654 304.328,182.035 301.482,229.499C296.745,308.496 205.669,343.502 149.696,288.292C117.495,256.529 108.471,186.835 169.437,149.388Z" style="fill:white;"/>
        <path d="M267.688,284.687C208.941,340.085 109.933,284.16 137.904,197.62C145.106,175.336 177.339,141.013 224.524,147.309C248.62,150.524 262.591,163.381 265.222,165.803C279.533,178.974 282.735,185.399 288.375,199.549C296.019,218.729 297.023,258.602 267.688,284.687Z" style="fill:rgb(73,87,136);"/>
        <g transform="matrix(1,0,0,1,-10.593452,10.593452)">
            <path d="M280.465,74.812C281.768,75.147 354.311,88.571 380.229,158.612C384.624,170.489 386.981,176.993 384.464,177.547C383.769,177.699 368.616,107.74 276.493,82.524C241.01,72.812 197.338,78.164 185.499,83.496C180.145,85.907 180.605,82.526 181.175,82.196C182.132,81.642 205.793,75.151 209.514,74.593C245.286,69.232 248.147,69.738 280.465,74.812Z" style="fill:white;"/>
        </g>
        <path d="M220.239,238.386C220.71,237.423 225.074,228.513 226.654,226.615C234.929,216.676 241.507,240.574 241.495,242.5C241.457,248.479 220.971,249.065 220.375,248.88C213.945,246.88 220.147,238.552 220.239,238.386Z" style="fill:rgb(126,149,243);"/>
        <path d="M206.506,203.504C206.649,203.295 209.308,197.642 213.503,197.647C214.165,197.648 217.23,197.651 220.027,202.748C225.235,212.235 228.935,214.714 225.214,218.187C223.016,220.238 203.91,219.122 203.352,218.947C195.933,216.624 203.937,207.561 206.506,203.504Z" style="fill:rgb(255,115,132);"/>
        <path d="M188.355,234.428C188.746,233.643 192.688,225.723 193.779,224.906C198.828,221.127 202.062,229.85 207.125,238.727C215.326,253.11 200.921,248.603 191.455,246.769C181.384,244.818 187.088,237.441 188.355,234.428Z" style="fill:rgb(162,236,203);"/>
        <path d="M251.558,138.356C250.257,137.782 249.7,137.948 249.544,137.995C248.255,138.38 246.716,135.409 251.475,134.926C251.768,134.896 256.376,135.501 253.408,137.35C253.265,137.439 253.271,137.425 251.558,138.356Z" style="fill:rgb(133,139,187);"/>
    </g>
</svg>
